<svg width="55" height="192" viewBox="0 0 55 192" fill="none" xmlns="http://www.w3.org/2000/svg">
<path d="M53 191.96H1.16V175.184C1.16 174.776 1.172 173.936 1.196 172.664C1.22 171.392 1.304 170.168 1.448 168.992C1.952 164.816 3.404 161.276 5.804 158.372C8.204 155.468 11.252 153.26 14.948 151.748C18.644 150.236 22.688 149.48 27.08 149.48C31.472 149.48 35.516 150.236 39.212 151.748C42.908 153.26 45.956 155.468 48.356 158.372C50.756 161.276 52.208 164.816 52.712 168.992C52.856 170.168 52.94 171.392 52.964 172.664C52.988 173.936 53 174.776 53 175.184V191.96ZM43.784 182.024V175.184C43.784 174.536 43.772 173.66 43.748 172.556C43.7 171.452 43.592 170.456 43.424 169.568C42.968 167.312 41.912 165.476 40.256 164.06C38.6 162.62 36.608 161.564 34.28 160.892C31.952 160.196 29.552 159.848 27.08 159.848C24.488 159.848 22.028 160.208 19.7 160.928C17.372 161.624 15.404 162.692 13.796 164.132C12.188 165.572 11.168 167.384 10.736 169.568C10.544 170.456 10.436 171.452 10.412 172.556C10.388 173.66 10.376 174.536 10.376 175.184V182.024H43.784ZM53 140.843H1.16V131.051H25.064L1.16 111.323L1.16 99.3708L26.72 121.043L53 98.0028V110.387L29.384 131.051H53V140.843ZM53 92.96H1.16V83.024L35.72 60.488H1.16L1.16 50.552H53V60.488L18.44 83.024H53V92.96ZM54.08 20.9229C54.08 24.7629 53.408 28.2309 52.064 31.3269C50.696 34.3989 48.752 36.9309 46.232 38.9229C43.688 40.8909 40.664 42.1389 37.16 42.6669L35.648 32.4429C38.624 31.7229 40.916 30.2349 42.524 27.9789C44.132 25.7229 44.936 23.1549 44.936 20.2749C44.936 18.6669 44.684 17.1069 44.18 15.5949C43.676 14.0829 42.932 12.8469 41.948 11.8869C40.964 10.9029 39.752 10.4109 38.312 10.4109C37.784 10.4109 37.28 10.4949 36.8 10.6629C36.296 10.8069 35.828 11.0589 35.396 11.4189C34.964 11.7789 34.556 12.2949 34.172 12.9669C33.788 13.6149 33.44 14.4429 33.128 15.4509L29.168 28.9149C28.88 29.9229 28.472 31.0989 27.944 32.4429C27.416 33.7629 26.66 35.0469 25.676 36.2949C24.692 37.5429 23.396 38.5869 21.788 39.4269C20.156 40.2429 18.104 40.6509 15.632 40.6509C12.152 40.6509 9.26 39.7749 6.956 38.0229C4.652 36.2709 2.936 33.9309 1.808 31.0029C0.679997 28.0749 0.127997 24.8349 0.151998 21.2829C0.199997 17.7069 0.811997 14.5149 1.988 11.7069C3.164 8.89887 4.88 6.54687 7.136 4.65087C9.368 2.75487 12.104 1.38687 15.344 0.546875L17.144 11.1309C15.464 11.5149 14.048 12.2229 12.896 13.2549C11.744 14.2869 10.868 15.5229 10.268 16.9629C9.668 18.3789 9.344 19.8669 9.296 21.4269C9.248 22.9629 9.464 24.4149 9.944 25.7829C10.4 27.1269 11.072 28.2309 11.96 29.0949C12.848 29.9349 13.904 30.3549 15.128 30.3549C16.256 30.3549 17.18 30.0069 17.9 29.3109C18.596 28.6149 19.16 27.7389 19.592 26.6829C20.024 25.6269 20.384 24.5469 20.672 23.4429L23.12 14.4429C23.48 13.0989 23.96 11.6109 24.56 9.97887C25.136 8.34687 25.952 6.78687 27.008 5.29887C28.04 3.78687 29.408 2.55087 31.112 1.59087C32.816 0.606872 34.976 0.114872 37.592 0.114872C40.376 0.114872 42.812 0.702872 44.9 1.87887C46.964 3.03087 48.68 4.59087 50.048 6.55887C51.392 8.52687 52.4 10.7589 53.072 13.2549C53.744 15.7269 54.08 18.2829 54.08 20.9229Z" fill="black"/>
</svg>
